<svg xmlns="http://www.w3.org/2000/svg" xmlns:xlink="http://www.w3.org/1999/xlink" width="240.282" height="296.735" viewBox="0 0 240.282 296.735">
  <defs>
    <linearGradient id="linear-gradient" x1="0.5" x2="0.465" y2="1" gradientUnits="objectBoundingBox">
      <stop offset="0" stop-color="#ffe19d"/>
      <stop offset="0.734" stop-color="#ff7a93"/>
      <stop offset="1" stop-color="#f08"/>
    </linearGradient>
  </defs>
  <g id="shape1" transform="translate(-151.221 -184)">
    <path id="Path_2" data-name="Path 2" d="M245.627,196.065a115.109,115.109,0,0,0-22.12,2.248,89.294,89.294,0,0,0-12.826,3.937,86.677,86.677,0,0,0-9.936,4.254,130,130,0,0,0-12.984,8.289,48.274,48.274,0,0,0-10.478,10.282,36.3,36.3,0,0,0-5.138,10.416,79.438,79.438,0,0,0-2.732,11.742q-.192,1.042-.377,2.088-.439,1.346-.806,2.692a63.676,63.676,0,0,0-1.881,10.071,71.58,71.58,0,0,0-1.45,12.578c-.233,7.32.874,14.76,2.115,21.989a165.576,165.576,0,0,0,5.239,21.583c3.331,10.591,8.17,20.852,12.793,31.079,3.923,8.7,7.629,17.469,11.568,26.158.584,1.286,1.144,2.582,1.722,3.872q1.239,4.947,2.326,9.92c1.966,9.166,2.957,18.466,5.239,27.583a80.4,80.4,0,0,0,4.347,11.974,57.072,57.072,0,0,0,4.523,8.43c.666,1,1.341,1.979,2.074,2.954a33.06,33.06,0,0,0,3.931,4.31c2.79,2.611,7.112,4.008,10.819,5.306,3.06,1.077,6.218,1.979,9.414,2.79l.222.144a47.807,47.807,0,0,0,9.32,4.457,62.289,62.289,0,0,0,13.975,3.495c4.323.569,8.67.912,13.034,1.053a91.99,91.99,0,0,0,11.211-.583c4.53-.414,9.02-.961,13.484-1.7,1.8-.3,3.589-.611,5.388-.92a45.423,45.423,0,0,0,8.329-2.632,71.771,71.771,0,0,0,9.345-4.646c3.131-1.727,6.188-3.53,9.2-5.4a162.388,162.388,0,0,0,19.7-14.073,96.648,96.648,0,0,0,14.842-16.522,100.388,100.388,0,0,0,9-15.715c1.291-2.639,2.624-5.264,3.815-7.931,2.956-6.625,4-13.539,5.1-20.515.766-4.864,1.6-9.763,2.107-14.655,1.041-10.016,1.974-20,2.374-30.054a118.6,118.6,0,0,0-.75-14.571c-.449-5.306-1.366-10.584-2.223-15.848a174.991,174.991,0,0,0-6.43-26.8,81.5,81.5,0,0,0-19.814-31.731A159.592,159.592,0,0,0,349.362,226.4c-3.515-2.857-7.063-5.693-10.694-8.444a121.058,121.058,0,0,0-21.313-12.641,109.318,109.318,0,0,0-21.838-7.692,103.134,103.134,0,0,0-13.326-1.951c-4.714-.47-9.428-.814-14.159-.983q-1.7-.062-3.408-.06a145.473,145.473,0,0,0-19,1.434Z" fill="url(#linear-gradient)"/>
    <path id="Path_3" data-name="Path 3" d="M250.938,184.077a85.43,85.43,0,0,0-12.043,1.664,79.736,79.736,0,0,0-18.115,6.253,78.178,78.178,0,0,0-12.937,7.917,168.49,168.49,0,0,0-32.088,17.645c-2.548,1.734-5.005,3.545-7.4,5.426-1.4,1.1-2.79,2.148-4.1,3.327A42.815,42.815,0,0,0,160.031,231c-1.982,2.4-3.09,5.426-4.131,8.191a40.656,40.656,0,0,0-2.124,7.791,170.215,170.215,0,0,0-2.532,18.88,43.191,43.191,0,0,0,.975,9.18c.349,2.036.708,4.078,1.191,6.093q.912,3.9,1.832,7.783c.974,4.1,2.007,8.191,3.015,12.283,1.96,7.924,3.818,15.871,5.415,23.855a96.13,96.13,0,0,1,1.048,13.148c-.03,5.443-.2,10.8-.751,16.208-.679,3.542-1.374,7.082-1.956,10.631-1.008,6.162-2.232,12.353-2.665,18.571-.225,3.194-.483,6.373-.475,9.581a81.85,81.85,0,0,0,3.773,23.147,113.454,113.454,0,0,0,9.187,21.078c3.6,6.625,8.97,12.521,14.591,18a89.289,89.289,0,0,0,19.439,13.841c5.447,2.969,11.727,4.787,17.732,6.787a91.839,91.839,0,0,0,24.745,4.633,89.479,89.479,0,0,0,14.491-.969c2.541-.288,5.048-.772,7.546-1.263a111.938,111.938,0,0,0,24.2-7.468,159.381,159.381,0,0,0,16.741-9.124,164.338,164.338,0,0,0,14.866-9.869c6.114-4.646,11.2-10.212,16.225-15.679q6.783-7.392,13.142-15.027c5.3-6.373,10.669-12.634,14.95-19.547a178.656,178.656,0,0,0,10.328-19.9,83.061,83.061,0,0,0,5.971-19.9,190.668,190.668,0,0,0,2.466-20.916c.241-3.551.491-7.1.574-10.654a83.1,83.1,0,0,0-1.174-13.532c-1.5-10.528-2.474-21.267-6.272-31.423-2.515-6.717-6.2-13.167-9.836-19.5-1.5-2.6-3.106-5.173-4.655-7.755-2.332-3.889-4.781-7.763-7.38-11.525-3.473-5.047-6.8-10.2-10.76-14.985a103.945,103.945,0,0,0-15.575-15.294q-3.374-2.673-6.738-5.334a151.856,151.856,0,0,0-16.415-11.5c-2.541-1.517-5.064-3.04-7.629-4.521a80.809,80.809,0,0,0-24.1-8.717,145.028,145.028,0,0,0-19.7-2.091c-1.851-.117-3.682-.19-5.518-.19q-1.57,0-3.152.077Zm5.044,34.055q2.015.228,4.029.451a92.594,92.594,0,0,1,15.28,3.279,107.485,107.485,0,0,1,13.051,7.09c3.22,2.222,6.371,4.481,9.495,6.832a145.766,145.766,0,0,1,16.376,13.933,202.927,202.927,0,0,1,13.64,18.662c5.2,7.725,10.37,15.534,14.714,23.637,4.3,9.515,5.954,19.55,7.648,29.588a78.679,78.679,0,0,1,.825,13.754c-.1,2.288-.208,4.576-.308,6.864-.171,3.806-.538,7.635-1.051,11.429a82.724,82.724,0,0,1-6.334,19.615,141.281,141.281,0,0,1-7.673,13.2,101.432,101.432,0,0,1-9.428,11.728q-3.561,3.93-7.121,7.855c-7.875,8.333-15.626,16.772-25.423,23.563-2.918,1.837-5.906,3.638-8.975,5.248-4.4,2.3-8.718,4.654-13.347,6.578a116.872,116.872,0,0,1-16.34,3.526,53.272,53.272,0,0,1-5.807.058c-1.015-.152-2.026-.322-3.034-.519a66.34,66.34,0,0,1-8.38-2.41,79.894,79.894,0,0,1-11.388-5.158,78.8,78.8,0,0,1-9.951-8.5,65.949,65.949,0,0,1-6.94-10.181,91.268,91.268,0,0,1-6.493-19.442c-1.248-11.07,0-22.26,1.251-33.3a107.194,107.194,0,0,0,.749-14.157,115.537,115.537,0,0,0-1.191-14.079c-1.557-10.907-3.165-22-8.037-32.279-4.256-8.963-7.379-18.333-10.419-27.625a118.373,118.373,0,0,1-3.657-12.877,80.325,80.325,0,0,1-.154-14.923,13.978,13.978,0,0,0,6.859.153,12.436,12.436,0,0,0,7.055-4.569c1.2-1.461,2.475-2.87,3.733-4.29a58.321,58.321,0,0,1,6.87-6.442c1.314-.725,2.682-1.383,4.013-2.091,2.341-1.243,4.581-2.646,6.9-3.924,4.4-2.434,8.6-5.051,13.238-7.149a106.392,106.392,0,0,1,13.47-3.046,73.018,73.018,0,0,1,12.259-.073Zm-57.427,23.456q-.429.467-.862.934.429-.467.862-.934Z" fill="url(#linear-gradient)"/>
  </g>
</svg>
