<svg xmlns="http://www.w3.org/2000/svg" width="1026.598" height="614.249" viewBox="0 0 1026.598 614.249">
  <path id="shape_top" d="M3114.3,1486.573c-12.317-39.843-23.641-81.362-59.794-114.587-32.941-30.273-83.784-50.722-137.13-64.125-58.908-14.8-126.4-21.67-184.675-5.849-56.729,15.4-95.59,49.556-126.628,83.919s-58.076,71.243-102.686,98.651c-86.656,53.242-223.951,61.38-307.006,116.973-43.316,28.993-67.516,69.566-65.526,109.866,6.607,133.889,278.885,213.815,459.375,192.329,160.6-19.119,283.162-107.413,441.208-133.992,33.05-5.558,69.355-9.022,93.813-24.438,25.884-16.315,31.387-41.711,32-65.087,1.724-65.334-23.131-129.544-42.941-193.619Z" transform="translate(-2130.745 -1292.973)" fill="#fef1e0"/>
</svg>
