<svg id="bt_logo" xmlns="http://www.w3.org/2000/svg" width="80" height="35" viewBox="0 0 80 35">
  <g id="Group_20" data-name="Group 20" transform="translate(62.035 16.075)">
    <g id="Group_19" data-name="Group 19" transform="translate(0 0.327)">
      <path id="Path_58" data-name="Path 58" d="M570.748,157.175c.409-.166.614-.329.614-.5s-.211-.29-.633-.335l-2.473-.25.081,12.018,2.412.094Z" transform="translate(-558.207 -154.266)" fill="#ff398d"/>
      <path id="Path_59" data-name="Path 59" d="M553.6,159.97v-.006l-1.782-1.928-1.291,1.449-.015-5.291,2.81-.023v-.013c.317.009.828.089-.036-.811v-.009l-1.673-1.625-1.177,1.261h-5.959l.234,1.22h2.554l.014,5.471h-3.108l.222,1.1h2.872l.008,8.438,3.153-.58.086-7.858H553.6C553.889,160.738,554.473,160.891,553.6,159.97Z" transform="translate(-544.168 -151.713)" fill="#ff398d"/>
    </g>
    <path id="Path_60" data-name="Path 60" d="M579.55,168.839a1.971,1.971,0,0,0,.694-1.616V152.294c.49-.256.735-.492.735-.705,0-.183-.22-.3-.658-.363l-3.233-.3v15.314s.169,2.254-.582,3.164Z" transform="translate(-563.014 -150.929)" fill="#ff398d"/>
  </g>
  <g id="Group_21" data-name="Group 21" transform="translate(41.223 15.819)">
    <path id="Path_61" data-name="Path 61" d="M518.351,179.76V176.3c.408-.164.614-.322.614-.47,0-.106-.1-.24-.3-.4l-2.1-1.415-1.186,1.032h-1.644l-2.651-.718v7.031l2.771-.406v-1.575H515.4v.79Zm-4.495-1.313v-2.424H515.4v2.424Z" transform="translate(-504.21 -164.126)" fill="#ff398d"/>
    <path id="Path_62" data-name="Path 62" d="M513.75,151.978l-2.71-1.663-1.224,1.476h-9.481l-3.055-.512v8.563c-.074,1.442-.479,6.191-2.675,8.851,0,0,5.37-.8,5.754-8.851h.008v-.21c0-.086.008-.17.011-.261l-.011-.751.166.637h8.934c.206.046.7-.078.156-.643l.028.028-.134-.147a1.594,1.594,0,0,0-.137-.139L508.1,157l-1,1.252-.7-.024v-1.861h2.794l.043,0c.221,0,.912.1.02-.846v-.006l-1.292-1.3-1.01,1.123h-.555v-.844c.37-.15.555-.305.555-.473,0-.193-.209-.315-.632-.359l-2.852-.2v1.878h-2.553l.238,1.03h2.315v1.861h-3.1v-5.343h9.621v13.1s.167,2.253-.583,3.163l3.045-.568a1.972,1.972,0,0,0,.7-1.616l0-13.894.132-.063c.513-.254.771-.463.771-.63C514.047,152.262,513.949,152.128,513.75,151.978Z" transform="translate(-494.605 -150.315)" fill="#ff398d"/>
  </g>
  <path id="Path_63" data-name="Path 63" d="M419.344,117.883c.367-.5.729-1.007,1.083-1.536,0,0,1.008.1,1.146-.718,0,0,.067-.545-.848-.837l-5.883-1.955s-5.826,13-18.354,20.428a41.015,41.015,0,0,0,21.1-13.172,48.377,48.377,0,0,0,4.032,4.308,30.8,30.8,0,0,0,12.74,8.371c.576-1.224,5.905-6.555,5.905-6.555A37.457,37.457,0,0,1,419.344,117.883Z" transform="translate(-396.487 -112.838)" fill="#ff398d"/>
  <path id="Path_64" data-name="Path 64" d="M441.617,148.791l-3.367-3.006a.653.653,0,0,0-1.042.121l-1.723,2.565-10.405-.041.32,1.444h15.7S442.539,150.034,441.617,148.791Z" transform="translate(-413.151 -131.83)" fill="#ff398d"/>
  <path id="Path_65" data-name="Path 65" d="M440.214,163.7l-4.2-1.952-2.042,1.356H414.429l.334,1.477,18.528-.05-5.92,8.58c-1.263,1.544-1.029,1.255-1.736,1.8l5.642.862c1.362.118,2.488-1.48,2.488-1.48l5.869-8.444a2.367,2.367,0,0,0,1.051-.657C441.444,164.425,440.214,163.7,440.214,163.7Z" transform="translate(-406.944 -141.162)" fill="#ff398d"/>
</svg>
