<svg id="icon_line" xmlns="http://www.w3.org/2000/svg" width="40" height="40" viewBox="0 0 40 40">
  <circle id="Ellipse" data-name="Ellipse" cx="20" cy="20" r="20" fill="#ff398d"/>
  <path id="Icon_simple-line" data-name="Icon simple-line" d="M16.138,8.6a.525.525,0,0,1,0,1.051H14.675v.938h1.463a.525.525,0,1,1,0,1.049H14.149a.526.526,0,0,1-.523-.524V7.138a.527.527,0,0,1,.525-.525H16.14a.525.525,0,0,1,0,1.05H14.675V8.6h1.463Zm-3.213,2.513a.524.524,0,0,1-.36.5.538.538,0,0,1-.166.026.515.515,0,0,1-.425-.208L9.938,8.664v2.45a.524.524,0,1,1-1.047,0V7.138a.522.522,0,0,1,.358-.5.485.485,0,0,1,.162-.028.539.539,0,0,1,.413.212L11.875,9.6V7.138a.525.525,0,1,1,1.05,0v3.976Zm-4.784,0a.524.524,0,1,1-1.048,0V7.138a.524.524,0,1,1,1.048,0Zm-2.055.524H4.1a.528.528,0,0,1-.525-.524V7.138a.525.525,0,0,1,1.05,0v3.451H6.086a.525.525,0,0,1,0,1.049M20,8.976C20,4.5,15.513.858,10,.858S0,4.5,0,8.976c0,4.009,3.558,7.368,8.363,8.007.326.068.769.215.882.492a2.036,2.036,0,0,1,.032.9l-.137.85c-.038.251-.2.988.874.537a32.237,32.237,0,0,0,7.863-5.812A7.186,7.186,0,0,0,20,8.976" transform="translate(10 10.095)" fill="#fff"/>
</svg>
