<svg xmlns="http://www.w3.org/2000/svg" width="293.17" height="186.997" viewBox="0 0 293.17 186.997">
  <path id="shape_bottom" d="M1710.38,753.945c-.114.218-.232.434-.349.648a22.18,22.18,0,0,1-3.2,4.178,50.07,50.07,0,0,1-7.3,6.306,49.038,49.038,0,0,1-9.119,5.207c-7.606,3.4-16.349,5.585-24.8,7.7l-.473.117a61.142,61.142,0,0,1-7.184,1.374,86.2,86.2,0,0,1-10.448.507q-4.9,0-9.8.016c-1.106,0-2.208.022-3.312.042-1.485.026-2.972.05-4.466.039-.433,0-.866,0-1.3,0-.932.005-1.9.01-2.858-.047l-2.734-.159-2.735-.16c-.974-.057-1.986-.174-2.964-.289-.5-.058-.995-.116-1.489-.167-1.3-.135-2.622-.328-3.9-.515-3.3-.485-6.494-.981-9.69-1.487-3.633-.574-7.335-1.251-10.916-1.9-2.053-.375-4.107-.751-6.158-1.109l-1.765-.309-.546-.1a6.3,6.3,0,0,1-.955-.165c-5.124-.9-10.422-1.828-15.636-2.788-5.82-1.069-12.044-2.273-18.134-3.823-3.274-.833-6.57-1.725-10.074-2.725-2.516-.717-5.068-1.509-7.534-2.276l-1.18-.366c-2.96-.913-5.959-2.046-8.538-3.035-3.11-1.2-6.371-2.505-9.97-4-4.739-1.97-9.429-4.352-13.967-6.655q-1.362-.692-2.722-1.378c-2.557-1.294-5.127-2.764-7.854-4.492a85.2,85.2,0,0,1-8.081-6.012l-.974-.791c-1.918-1.554-3.9-3.162-5.783-4.8-2.632-2.289-5.154-4.621-7.494-6.932-2.058-2.032-4.241-4.238-6.25-6.6-1.748-2.055-3.344-4.222-4.887-6.318l-.412-.559c-.736-1-1.528-2-2.293-2.967-.726-.918-1.453-1.835-2.144-2.765a41.239,41.239,0,0,1-4.336-7.141,23.285,23.285,0,0,1-1.97-6.916,35.051,35.051,0,0,1-.05-6.3l.046-.878a27.387,27.387,0,0,1,.781-5.268c.127-.507.275-1.008.422-1.507.1-.349.205-.7.3-1.05.138-.5.257-1.012.374-1.521.095-.411.19-.822.295-1.229a45.011,45.011,0,0,1,2.117-6.253c.359-.872.747-1.74,1.155-2.583l.12-.238a16.329,16.329,0,0,1,2.466-3.279,13.283,13.283,0,0,1,3.12-2.3,19.243,19.243,0,0,1,2.319-1.192c.694-.3,1.429-.559,2.141-.812l.713-.254c.707-.257,1.382-.549,2.058-.842l.846-.362a52.968,52.968,0,0,1,8.988-2.536c.649-.144,1.3-.287,1.946-.435.906-.566,1.828-1.09,2.739-1.553a27.688,27.688,0,0,1,8.693-2.452,98.437,98.437,0,0,1,10.244-.841,95.457,95.457,0,0,1,10.443.216c3.684.272,7.5.847,11.083,1.428,4.238.691,8.021,1.456,11.57,2.339,3.256.812,6.783,1.86,11.1,3.3a133.615,133.615,0,0,1,22.48,9.725c3.245,1.8,6.411,3.812,9.471,5.759l1.541.981c1.574,1,3.13,2.017,4.685,3.039l1.972,1.293c3.315,2.119,6.4,4.049,9.422,5.9,1.208.739,2.487,1.434,3.724,2.106.617.335,1.233.671,1.842,1.01l.9.5c.97.545,1.939,1.09,2.921,1.612.894.474,1.787.956,2.68,1.438,2.412,1.3,4.905,2.645,7.416,3.827l2.4,1.132c4.272,2.021,8.69,4.112,13.125,5.939a93.617,93.617,0,0,0,12.065,3.754c2.128.516,4.295.96,6.389,1.39l1.63.336,2.22.458c2.348.484,4.7.968,7.044,1.487l1.289.285c2.577.568,5.242,1.157,7.871,1.871l1.335.361c2.583.7,5.253,1.418,7.876,2.235,3.659,1.14,6.98,2.206,10.155,3.261a69.894,69.894,0,0,1,12.867,5.575c3.524,2.03,6.405,3.749,9.068,5.409l.121.076a40.182,40.182,0,0,1,4.348,2.982,17.471,17.471,0,0,1,3.471,4.233,15.08,15.08,0,0,1,.89,1.649c.108.22.215.439.325.655a12.214,12.214,0,0,1,.879,2.186,22.307,22.307,0,0,1,.714,5.557,24.646,24.646,0,0,1-1.128,8.991,23.428,23.428,0,0,1-1.331,3.013Z" transform="matrix(0.978, -0.208, 0.208, 0.978, -1544.443, -276.333)" fill="#ffeae2"/>
</svg>
