<svg xmlns="http://www.w3.org/2000/svg" xmlns:xlink="http://www.w3.org/1999/xlink" width="281.393" height="275.547" viewBox="0 0 281.393 275.547">
  <defs>
    <linearGradient id="linear-gradient" x1="0.5" x2="0.5" y2="1" gradientUnits="objectBoundingBox">
      <stop offset="0" stop-color="#ffa289"/>
      <stop offset="1" stop-color="#ffe867"/>
    </linearGradient>
  </defs>
  <path id="shape2" d="M824.227,826.708c.142-.45.278-.9.415-1.353a69.849,69.849,0,0,0,2.01-9.818,141,141,0,0,0,1.3-17.675,115.864,115.864,0,0,0-1.085-18.152c-1.864-13.755-5.754-27.036-9.517-39.881l-.21-.718a92.64,92.64,0,0,0-3.626-10.3,104.135,104.135,0,0,0-6.788-12.781q-3.425-5.65-6.835-11.317c-.769-1.279-1.52-2.577-2.272-3.876-1.013-1.748-2.026-3.5-3.082-5.2-.307-.493-.607-.995-.908-1.5-.647-1.081-1.316-2.2-2.045-3.223L789.512,688l-2.074-2.916c-.739-1.039-1.565-2.031-2.365-2.99-.407-.488-.813-.976-1.21-1.472-1.044-1.3-2.165-2.538-3.25-3.737-2.8-3.095-5.535-6.042-8.283-8.979-3.122-3.343-6.4-6.614-9.564-9.778-1.817-1.815-3.633-3.629-5.431-5.466l-1.546-1.58-.479-.488a5.281,5.281,0,0,0-.835-.858c-4.493-4.583-9.141-9.322-13.761-13.919-5.154-5.132-10.727-10.535-16.558-15.275-3.135-2.547-6.344-5.033-9.808-7.6-2.487-1.847-5.076-3.622-7.579-5.339l-1.2-.821a98.5,98.5,0,0,0-9.05-5.377c-3.388-1.826-7-3.66-11.034-5.607a139.89,139.89,0,0,0-16.521-6.315q-1.654-.554-3.3-1.11a63.259,63.259,0,0,0-10.052-2.45,61.82,61.82,0,0,0-11.754-.479l-1.485.038c-2.919.075-5.938.153-8.913.385-4.165.329-8.3.85-12.279,1.548a92.353,92.353,0,0,0-11.074,2.5c-3.309,1-6.625,2.348-9.832,3.647l-.857.347c-1.53.621-3.1,1.178-4.615,1.716-1.44.51-2.879,1.021-4.307,1.591a51.092,51.092,0,0,0-10.284,5.494,43.436,43.436,0,0,0-8.4,7.887,89.7,89.7,0,0,0-6.439,9.205l-.86,1.34a79.378,79.378,0,0,0-4.8,8.637c-.427.893-.832,1.8-1.237,2.7-.283.631-.566,1.262-.856,1.888-.413.9-.849,1.78-1.284,2.665-.351.712-.7,1.425-1.041,2.144-1.686,3.541-3.279,7.343-4.872,11.623-.634,1.693-1.245,3.417-1.816,5.124l-.159.487a51.652,51.652,0,0,0-1.606,7.657,35.2,35.2,0,0,0-.155,6.974,43.6,43.6,0,0,0,.41,4.423c.184,1.235.433,2.467.673,3.658l.239,1.2c.233,1.192.408,2.4.583,3.606l.223,1.507a91.515,91.515,0,0,0,3.706,14.079c.309.959.618,1.919.92,2.881.058,1.875.171,3.706.336,5.437a47.96,47.96,0,0,0,3.586,13.614,125.5,125.5,0,0,0,6.306,13.037,102.857,102.857,0,0,0,7.518,11.713,139.567,139.567,0,0,0,19.659,20.564,111.445,111.445,0,0,0,11.11,7.945,92.234,92.234,0,0,0,25.588,11.614,124.581,124.581,0,0,0,12.47,2.451l2.072.336c2.112.35,4.237.642,6.362.933l2.691.374c4.47.705,8.584,1.423,12.574,2.2,1.6.3,3.2.758,4.741,1.2.773.218,1.543.437,2.314.637l1.136.294c1.232.316,2.463.633,3.68,1,1.107.334,2.22.655,3.333.977,3.006.868,6.115,1.766,9.07,2.922l2.826,1.1c5.039,1.953,10.249,3.973,15.2,6.4a69.033,69.033,0,0,1,12.245,8.387c2.011,1.693,3.977,3.535,5.878,5.317l1.48,1.385,2.018,1.884c2.133,1.994,4.265,3.987,6.433,5.931l1.191,1.066c2.379,2.134,4.838,4.34,7.4,6.319l1.3,1.009c2.512,1.952,5.11,3.97,7.774,5.793,3.715,2.539,7.12,4.8,10.41,6.907a48.27,48.27,0,0,0,14.657,6.635c4.524,1.078,8.284,1.873,11.831,2.5l.161.029a28.3,28.3,0,0,0,6.068.628c2.386-.087,4.691-1.219,6.724-2.217a20.81,20.81,0,0,0,2.3-1.4c.3-.2.6-.4.892-.588a19.591,19.591,0,0,0,2.834-2.2,50.663,50.663,0,0,0,6.144-7.34,70.566,70.566,0,0,0,8.342-14.5c.737-1.8,1.434-3.749,2.131-5.962Z" transform="translate(-546.585 -585.379)" opacity="0.685" fill="url(#linear-gradient)"/>
</svg>
